<?xml version="1.0" standalone="no"?>
<!DOCTYPE svg PUBLIC "-//W3C//DTD SVG 20010904//EN"
 "http://www.w3.org/TR/2001/REC-SVG-20010904/DTD/svg10.dtd">
<svg version="1.0" xmlns="http://www.w3.org/2000/svg"
 width="707.000000pt" height="329.000000pt" viewBox="0 0 707.000000 329.000000"
 preserveAspectRatio="xMidYMid meet">

<g transform="translate(0.000000,329.000000) scale(0.100000,-0.100000)"
fill="#FFFFFF" stroke="none">
<path d="M5407 2842 c-63 -42 -62 -34 -65 -412 -2 -226 0 -358 7 -382 6 -20
31 -58 55 -85 23 -26 48 -58 54 -70 9 -16 12 -191 12 -633 0 -603 0 -613 21
-650 33 -58 62 -70 176 -70 109 0 139 12 174 69 18 30 19 58 19 650 l0 618 28
39 c16 21 36 45 46 53 10 8 26 32 37 52 18 36 19 62 19 385 0 297 -2 351 -16
380 -20 41 -74 76 -111 72 l-28 -3 -5 -305 c-3 -168 -9 -311 -13 -317 -13 -21
-44 -15 -51 10 -3 12 -6 149 -6 304 0 155 -3 288 -6 297 -5 13 -23 16 -89 16
-66 0 -84 -3 -89 -16 -3 -9 -6 -147 -6 -308 0 -303 -2 -316 -42 -316 -10 0
-19 1 -20 3 -1 1 -4 144 -8 317 l-5 315 -30 3 c-17 1 -42 -6 -58 -16z"/>
<path d="M6575 2841 c-128 -31 -206 -80 -249 -155 -61 -104 -76 -255 -76 -762
l0 -394 36 -39 c19 -22 48 -43 65 -46 l29 -7 0 -402 c0 -403 0 -403 23 -437
34 -50 59 -59 176 -59 l104 0 39 40 38 41 0 1119 0 1120 -57 -1 c-32 0 -90 -8
-128 -18z"/>
<path d="M4824 2702 c-33 -22 -34 -45 -34 -1002 0 -957 1 -980 34 -1002 22
-15 83 -8 99 10 16 17 17 100 17 994 0 932 -1 976 -18 991 -19 17 -78 23 -98
9z"/>
<path d="M439 2058 c-1 -266 -3 -550 -5 -633 -3 -82 -2 -243 2 -357 l7 -208
98 0 99 0 0 360 0 360 133 0 133 0 205 -360 204 -360 113 0 114 0 -20 33 c-60
99 -402 687 -402 691 0 2 19 7 43 11 239 37 383 235 362 500 -15 198 -91 329
-229 394 -99 47 -141 51 -511 51 l-345 0 -1 -482z m748 276 c99 -48 127 -112
125 -284 -1 -129 -14 -174 -65 -228 -60 -63 -108 -72 -372 -72 l-235 0 0 312
0 311 247 -6 c239 -6 248 -7 300 -33z"/>
<path d="M1880 1700 l0 -840 520 0 520 0 0 85 0 85 -277 1 c-153 0 -342 0
-419 -1 l-142 -2 0 296 0 296 404 0 404 0 0 90 0 90 -405 0 -405 0 1 286 2
286 381 -2 c210 -1 398 -1 419 -1 l37 1 0 85 0 85 -520 0 -520 0 0 -840z"/>
<path d="M3270 2300 l0 -240 90 0 90 0 0 155 0 155 370 0 370 0 -13 -32 c-32
-75 -640 -1464 -644 -1471 -2 -4 45 -6 107 -5 l111 3 320 743 319 743 0 95 0
94 -560 0 -560 0 0 -240z"/>
</g>
</svg>
